<svg width="48" height="48" viewBox="0 0 48 48" fill="none" xmlns="http://www.w3.org/2000/svg">
<path d="M38.8599 25.96C38.9399 25.32 38.9999 24.68 38.9999 24C38.9999 23.32 38.9399 22.68 38.8599 22.04L43.0799 18.74C43.4599 18.44 43.5599 17.9 43.3199 17.46L39.3199 10.54C39.0799 10.1 38.5399 9.94 38.0999 10.1L33.1199 12.1C32.0799 11.3 30.9599 10.64 29.7399 10.14L28.9799 4.84C28.9199 4.36 28.4999 4 27.9999 4H19.9999C19.4999 4 19.0799 4.36 19.0199 4.84L18.2599 10.14C17.0399 10.64 15.9199 11.32 14.8799 12.1L9.89992 10.1C9.43992 9.92 8.91992 10.1 8.67992 10.54L4.67992 17.46C4.41992 17.9 4.53992 18.44 4.91992 18.74L9.13992 22.04C9.05992 22.68 8.99992 23.34 8.99992 24C8.99992 24.66 9.05992 25.32 9.13992 25.96L4.91992 29.26C4.53992 29.56 4.43992 30.1 4.67992 30.54L8.67992 37.46C8.91992 37.9 9.45992 38.06 9.89992 37.9L14.8799 35.9C15.9199 36.7 17.0399 37.36 18.2599 37.86L19.0199 43.16C19.0799 43.64 19.4999 44 19.9999 44H27.9999C28.4999 44 28.9199 43.64 28.9799 43.16L29.7399 37.86C30.9599 37.36 32.0799 36.68 33.1199 35.9L38.0999 37.9C38.5599 38.08 39.0799 37.9 39.3199 37.46L43.3199 30.54C43.5599 30.1 43.4599 29.56 43.0799 29.26L38.8599 25.96ZM23.9999 31C20.1399 31 16.9999 27.86 16.9999 24C16.9999 20.14 20.1399 17 23.9999 17C27.8599 17 30.9999 20.14 30.9999 24C30.9999 27.86 27.8599 31 23.9999 31Z" fill="white" fill-opacity="0.87"/>
</svg>
